<?xml version="1.0" encoding="UTF-8" standalone="no"?>
<!DOCTYPE svg PUBLIC "-//W3C//DTD SVG 1.1//EN"
 "http://www.w3.org/Graphics/SVG/1.1/DTD/svg11.dtd">
<!-- Generated by graphviz version 2.47.3 (20210619.2315)
 -->
<!-- Title: snakemake_dag Pages: 1 -->
<svg width="444pt" height="332pt"
 viewBox="0.00 0.00 444.00 332.00" xmlns="http://www.w3.org/2000/svg" xmlns:xlink="http://www.w3.org/1999/xlink">
<g id="graph0" class="graph" transform="scale(1 1) rotate(0) translate(4 328)">
<title>snakemake_dag</title>
<polygon fill="white" stroke="transparent" points="-4,4 -4,-328 440,-328 440,4 -4,4"/>
<!-- 0 -->
<g id="node1" class="node">
<title>0</title>
<path fill="none" stroke="#d85656" stroke-width="2" stroke-dasharray="5,2" d="M229.5,-36C229.5,-36 199.5,-36 199.5,-36 193.5,-36 187.5,-30 187.5,-24 187.5,-24 187.5,-12 187.5,-12 187.5,-6 193.5,0 199.5,0 199.5,0 229.5,0 229.5,0 235.5,0 241.5,-6 241.5,-12 241.5,-12 241.5,-24 241.5,-24 241.5,-30 235.5,-36 229.5,-36"/>
<text text-anchor="middle" x="214.5" y="-15.5" font-family="sans" font-size="10.00">all</text>
</g>
<!-- 1 -->
<g id="node2" class="node">
<title>1</title>
<path fill="none" stroke="#5682d8" stroke-width="2" stroke-dasharray="5,2" d="M82.5,-108C82.5,-108 38.5,-108 38.5,-108 32.5,-108 26.5,-102 26.5,-96 26.5,-96 26.5,-84 26.5,-84 26.5,-78 32.5,-72 38.5,-72 38.5,-72 82.5,-72 82.5,-72 88.5,-72 94.5,-78 94.5,-84 94.5,-84 94.5,-96 94.5,-96 94.5,-102 88.5,-108 82.5,-108"/>
<text text-anchor="middle" x="60.5" y="-87.5" font-family="sans" font-size="10.00">cnvkit2vcf</text>
</g>
<!-- 1&#45;&gt;0 -->
<g id="edge1" class="edge">
<title>1&#45;&gt;0</title>
<path fill="none" stroke="grey" stroke-width="2" d="M94.68,-73.46C119.35,-62.25 152.62,-47.13 177.85,-35.66"/>
<polygon fill="grey" stroke="grey" stroke-width="2" points="179.43,-38.79 187.08,-31.46 176.53,-32.41 179.43,-38.79"/>
</g>
<!-- 2 -->
<g id="node3" class="node">
<title>2</title>
<path fill="none" stroke="#56d89a" stroke-width="2" stroke-dasharray="5,2" d="M91,-180C91,-180 12,-180 12,-180 6,-180 0,-174 0,-168 0,-168 0,-156 0,-156 0,-150 6,-144 12,-144 12,-144 91,-144 91,-144 97,-144 103,-150 103,-156 103,-156 103,-168 103,-168 103,-174 97,-180 91,-180"/>
<text text-anchor="middle" x="51.5" y="-165" font-family="sans" font-size="10.00">cnvkit</text>
<text text-anchor="middle" x="51.5" y="-154" font-family="sans" font-size="10.00">sample: NA12878</text>
</g>
<!-- 2&#45;&gt;1 -->
<g id="edge5" class="edge">
<title>2&#45;&gt;1</title>
<path fill="none" stroke="grey" stroke-width="2" d="M53.72,-143.7C54.72,-135.98 55.91,-126.71 57.01,-118.11"/>
<polygon fill="grey" stroke="grey" stroke-width="2" points="60.5,-118.47 58.3,-108.1 53.55,-117.58 60.5,-118.47"/>
</g>
<!-- 3 -->
<g id="node4" class="node">
<title>3</title>
<path fill="none" stroke="#70d856" stroke-width="2" stroke-dasharray="5,2" d="M192.5,-108C192.5,-108 132.5,-108 132.5,-108 126.5,-108 120.5,-102 120.5,-96 120.5,-96 120.5,-84 120.5,-84 120.5,-78 126.5,-72 132.5,-72 132.5,-72 192.5,-72 192.5,-72 198.5,-72 204.5,-78 204.5,-84 204.5,-84 204.5,-96 204.5,-96 204.5,-102 198.5,-108 192.5,-108"/>
<text text-anchor="middle" x="162.5" y="-93" font-family="sans" font-size="10.00">pon_filter_vcf</text>
<text text-anchor="middle" x="162.5" y="-82" font-family="sans" font-size="10.00">tool: cnvnator</text>
</g>
<!-- 3&#45;&gt;0 -->
<g id="edge2" class="edge">
<title>3&#45;&gt;0</title>
<path fill="none" stroke="grey" stroke-width="2" d="M175.35,-71.7C181.53,-63.39 189.04,-53.28 195.82,-44.14"/>
<polygon fill="grey" stroke="grey" stroke-width="2" points="198.64,-46.22 201.79,-36.1 193.02,-42.04 198.64,-46.22"/>
</g>
<!-- 4 -->
<g id="node5" class="node">
<title>4</title>
<path fill="none" stroke="#d88556" stroke-width="2" stroke-dasharray="5,2" d="M189.5,-180C189.5,-180 133.5,-180 133.5,-180 127.5,-180 121.5,-174 121.5,-168 121.5,-168 121.5,-156 121.5,-156 121.5,-150 127.5,-144 133.5,-144 133.5,-144 189.5,-144 189.5,-144 195.5,-144 201.5,-150 201.5,-156 201.5,-156 201.5,-168 201.5,-168 201.5,-174 195.5,-180 189.5,-180"/>
<text text-anchor="middle" x="161.5" y="-159.5" font-family="sans" font-size="10.00">cnvnator2vcf</text>
</g>
<!-- 4&#45;&gt;3 -->
<g id="edge6" class="edge">
<title>4&#45;&gt;3</title>
<path fill="none" stroke="grey" stroke-width="2" d="M161.75,-143.7C161.86,-135.98 161.99,-126.71 162.11,-118.11"/>
<polygon fill="grey" stroke="grey" stroke-width="2" points="165.61,-118.15 162.26,-108.1 158.61,-118.05 165.61,-118.15"/>
</g>
<!-- 5 -->
<g id="node6" class="node">
<title>5</title>
<path fill="none" stroke="#9fd856" stroke-width="2" stroke-dasharray="5,2" d="M201,-252C201,-252 122,-252 122,-252 116,-252 110,-246 110,-240 110,-240 110,-228 110,-228 110,-222 116,-216 122,-216 122,-216 201,-216 201,-216 207,-216 213,-222 213,-228 213,-228 213,-240 213,-240 213,-246 207,-252 201,-252"/>
<text text-anchor="middle" x="161.5" y="-237" font-family="sans" font-size="10.00">cnvnator</text>
<text text-anchor="middle" x="161.5" y="-226" font-family="sans" font-size="10.00">sample: NA12878</text>
</g>
<!-- 5&#45;&gt;4 -->
<g id="edge7" class="edge">
<title>5&#45;&gt;4</title>
<path fill="none" stroke="grey" stroke-width="2" d="M161.5,-215.7C161.5,-207.98 161.5,-198.71 161.5,-190.11"/>
<polygon fill="grey" stroke="grey" stroke-width="2" points="165,-190.1 161.5,-180.1 158,-190.1 165,-190.1"/>
</g>
<!-- 6 -->
<g id="node7" class="node">
<title>6</title>
<path fill="none" stroke="#70d856" stroke-width="2" stroke-dasharray="5,2" d="M296,-108C296,-108 237,-108 237,-108 231,-108 225,-102 225,-96 225,-96 225,-84 225,-84 225,-78 231,-72 237,-72 237,-72 296,-72 296,-72 302,-72 308,-78 308,-84 308,-84 308,-96 308,-96 308,-102 302,-108 296,-108"/>
<text text-anchor="middle" x="266.5" y="-93" font-family="sans" font-size="10.00">pon_filter_vcf</text>
<text text-anchor="middle" x="266.5" y="-82" font-family="sans" font-size="10.00">tool: manta</text>
</g>
<!-- 6&#45;&gt;0 -->
<g id="edge3" class="edge">
<title>6&#45;&gt;0</title>
<path fill="none" stroke="grey" stroke-width="2" d="M253.65,-71.7C247.47,-63.39 239.96,-53.28 233.18,-44.14"/>
<polygon fill="grey" stroke="grey" stroke-width="2" points="235.98,-42.04 227.21,-36.1 230.36,-46.22 235.98,-42.04"/>
</g>
<!-- 7 -->
<g id="node8" class="node">
<title>7</title>
<path fill="none" stroke="#ced856" stroke-width="2" stroke-dasharray="5,2" d="M303,-180C303,-180 232,-180 232,-180 226,-180 220,-174 220,-168 220,-168 220,-156 220,-156 220,-150 226,-144 232,-144 232,-144 303,-144 303,-144 309,-144 315,-150 315,-156 315,-156 315,-168 315,-168 315,-174 309,-180 303,-180"/>
<text text-anchor="middle" x="267.5" y="-159.5" font-family="sans" font-size="10.00">prep_manta_vcf</text>
</g>
<!-- 7&#45;&gt;6 -->
<g id="edge8" class="edge">
<title>7&#45;&gt;6</title>
<path fill="none" stroke="grey" stroke-width="2" d="M267.25,-143.7C267.14,-135.98 267.01,-126.71 266.89,-118.11"/>
<polygon fill="grey" stroke="grey" stroke-width="2" points="270.39,-118.05 266.74,-108.1 263.39,-118.15 270.39,-118.05"/>
</g>
<!-- 8 -->
<g id="node9" class="node">
<title>8</title>
<path fill="none" stroke="#56d86b" stroke-width="2" stroke-dasharray="5,2" d="M289,-252C289,-252 246,-252 246,-252 240,-252 234,-246 234,-240 234,-240 234,-228 234,-228 234,-222 240,-216 246,-216 246,-216 289,-216 289,-216 295,-216 301,-222 301,-228 301,-228 301,-240 301,-240 301,-246 295,-252 289,-252"/>
<text text-anchor="middle" x="267.5" y="-231.5" font-family="sans" font-size="10.00">manta_TN</text>
</g>
<!-- 8&#45;&gt;7 -->
<g id="edge9" class="edge">
<title>8&#45;&gt;7</title>
<path fill="none" stroke="grey" stroke-width="2" d="M267.5,-215.7C267.5,-207.98 267.5,-198.71 267.5,-190.11"/>
<polygon fill="grey" stroke="grey" stroke-width="2" points="271,-190.1 267.5,-180.1 264,-190.1 271,-190.1"/>
</g>
<!-- 9 -->
<g id="node10" class="node">
<title>9</title>
<path fill="none" stroke="#56d8c9" stroke-width="2" stroke-dasharray="5,2" d="M307,-324C307,-324 228,-324 228,-324 222,-324 216,-318 216,-312 216,-312 216,-300 216,-300 216,-294 222,-288 228,-288 228,-288 307,-288 307,-288 313,-288 319,-294 319,-300 319,-300 319,-312 319,-312 319,-318 313,-324 307,-324"/>
<text text-anchor="middle" x="267.5" y="-309" font-family="sans" font-size="10.00">config_manta</text>
<text text-anchor="middle" x="267.5" y="-298" font-family="sans" font-size="10.00">sample: NA12878</text>
</g>
<!-- 9&#45;&gt;8 -->
<g id="edge10" class="edge">
<title>9&#45;&gt;8</title>
<path fill="none" stroke="grey" stroke-width="2" d="M267.5,-287.7C267.5,-279.98 267.5,-270.71 267.5,-262.11"/>
<polygon fill="grey" stroke="grey" stroke-width="2" points="271,-262.1 267.5,-252.1 264,-262.1 271,-262.1"/>
</g>
<!-- 10 -->
<g id="node11" class="node">
<title>10</title>
<path fill="none" stroke="#70d856" stroke-width="2" stroke-dasharray="5,2" d="M406,-108C406,-108 347,-108 347,-108 341,-108 335,-102 335,-96 335,-96 335,-84 335,-84 335,-78 341,-72 347,-72 347,-72 406,-72 406,-72 412,-72 418,-78 418,-84 418,-84 418,-96 418,-96 418,-102 412,-108 406,-108"/>
<text text-anchor="middle" x="376.5" y="-93" font-family="sans" font-size="10.00">pon_filter_vcf</text>
<text text-anchor="middle" x="376.5" y="-82" font-family="sans" font-size="10.00">tool: tiddit</text>
</g>
<!-- 10&#45;&gt;0 -->
<g id="edge4" class="edge">
<title>10&#45;&gt;0</title>
<path fill="none" stroke="grey" stroke-width="2" d="M336.87,-71.88C310.62,-60.53 276.45,-45.77 250.9,-34.73"/>
<polygon fill="grey" stroke="grey" stroke-width="2" points="252.12,-31.44 241.56,-30.69 249.35,-37.87 252.12,-31.44"/>
</g>
<!-- 11 -->
<g id="node12" class="node">
<title>11</title>
<path fill="none" stroke="#d8b456" stroke-width="2" stroke-dasharray="5,2" d="M424,-180C424,-180 345,-180 345,-180 339,-180 333,-174 333,-168 333,-168 333,-156 333,-156 333,-150 339,-144 345,-144 345,-144 424,-144 424,-144 430,-144 436,-150 436,-156 436,-156 436,-168 436,-168 436,-174 430,-180 424,-180"/>
<text text-anchor="middle" x="384.5" y="-165" font-family="sans" font-size="10.00">tiddit</text>
<text text-anchor="middle" x="384.5" y="-154" font-family="sans" font-size="10.00">sample: NA12878</text>
</g>
<!-- 11&#45;&gt;10 -->
<g id="edge11" class="edge">
<title>11&#45;&gt;10</title>
<path fill="none" stroke="grey" stroke-width="2" d="M382.52,-143.7C381.64,-135.98 380.58,-126.71 379.6,-118.11"/>
<polygon fill="grey" stroke="grey" stroke-width="2" points="383.07,-117.64 378.45,-108.1 376.11,-118.44 383.07,-117.64"/>
</g>
</g>
</svg>
